<?xml version="1.0" encoding="UTF-8" standalone="no"?>
<!DOCTYPE svg PUBLIC "-//W3C//DTD SVG 1.1//EN" "http://www.w3.org/Graphics/SVG/1.1/DTD/svg11.dtd">
<svg version="1.1" xmlns="http://www.w3.org/2000/svg" xmlns:xlink="http://www.w3.org/1999/xlink" preserveAspectRatio="xMidYMid meet" viewBox="0 0 640 640" width="640" height="640"><defs><path d="M22.32 15.92L621.33 14.31L622.91 603.14L23.9 604.75L22.32 15.92Z" id="a6UE3mlve"></path><path d="M599.59 502.73C605.12 502.73 609.59 507.2 609.59 512.73C609.59 518.73 609.59 526.73 609.59 532.73C609.59 538.25 605.12 542.73 599.59 542.73C488.73 542.73 166.13 542.73 55.27 542.73C49.74 542.73 45.27 538.25 45.27 532.73C45.27 526.73 45.27 518.73 45.27 512.73C45.27 507.2 49.74 502.73 55.27 502.73C166.13 502.73 488.73 502.73 599.59 502.73Z" id="b4lnEfUkv0"></path><path d="M236.5 134.96C236.5 134.96 236.35 134.96 236.15 134.96C235.95 134.96 235.8 134.96 235.8 134.96C235.8 134.96 235.95 134.96 236.15 134.96C236.35 134.96 236.43 134.96 236.5 134.96Z" id="a3gFzWOhX"></path><path d="M605.35 297.71C605.35 403.26 479.87 488.95 325.31 488.95C170.75 488.95 45.27 403.26 45.27 297.71C45.27 192.16 170.75 106.47 325.31 106.47C479.87 106.47 605.35 192.16 605.35 297.71Z" id="d1dvDODqRd"></path><path d="M191.22 202.89L190.51 192.28L165.74 182.37L155.84 188.03L148.05 197.23L146.64 208.55L148.05 219.17L155.13 226.95L165.04 229.78L175.65 232.61L186.26 232.61L174.94 230.49L162.91 226.24L152.3 225.54L142.39 230.49L135.32 241.1L133.9 251.72L136.02 261.62L143.1 271.53L151.59 279.31L162.91 287.1L170.7 293.47L182.02 298.42L193.34 301.96L204.66 300.54L211.74 293.47L218.81 285.68" id="jpFSVaZub"></path><path d="M276.13 205.02L276.84 192.99L267.64 186.62L257.73 184.5L247.12 190.16L242.16 199.35L242.16 209.97L241.46 220.58L239.33 231.2L235.09 241.81L232.26 254.55L230.84 265.87L230.84 284.27L233.67 297.71L244.29 301.25L254.9 301.25L269.05 301.25L279.67 301.25L298.06 297.71L300.89 286.39L301.6 275.78L302.31 265.16L300.19 255.25" id="fnlJ7jBN5"></path><path d="M327.08 198.65L322.83 212.09L318.58 225.54L318.58 236.86L317.17 248.18L317.17 259.5L315.05 269.41L312.22 280.73L307.97 290.63L317.17 277.9L322.12 265.87L326.37 255.25L328.49 244.64L329.2 234.03L332.74 219.88L336.27 208.55L340.52 198.65L347.6 205.72L351.13 220.58L356.8 234.03L359.63 243.93L362.46 254.55L365.99 265.16L368.12 276.48L369.53 287.8L373.07 297.71" id="aiVGQysxO"></path><path d="M318.58 242.52L330.61 243.93L341.23 248.18L360.33 252.42L370.24 255.25" id="d3c38xK50E"></path><path d="M378.02 201.48L378.02 214.92L378.73 233.32L381.56 248.89L383.68 259.5L385.1 270.11L387.22 284.27L387.22 297.71L388.64 308.32L395.01 299.13L395.01 282.85L395.01 272.24L392.88 257.38L392.88 243.23L392.88 227.66L392.88 216.34L392.88 205.02L392.88 194.4L407.03 190.86L419.77 191.57L429.68 192.99L443.12 196.52L458.69 201.48L467.89 207.14L475.67 215.63L477.79 226.95L477.79 237.57L471.43 245.35L461.52 248.89L448.07 248.89L438.17 247.47L428.26 244.64L419.06 240.4L409.86 235.44L402.79 242.52L398.54 253.84L396.42 263.75L393.59 273.65L389.34 284.97" id="b1JammI7zq"></path><path d="M434.63 217.04L424.02 213.51L418.36 222.71L422.6 232.61L433.92 234.73L444.54 235.44L450.2 226.95L450.91 216.34L438.88 212.09L429.68 207.85" id="a1UqIq2kFk"></path><path d="M154.42 341.58L144.52 343L150.88 352.9L165.74 360.69L174.94 366.35L178.48 376.25L178.48 386.87L171.4 394.65L156.55 388.28L143.81 381.21L133.9 373.42" id="cu8qxYar8"></path><path d="M184.19 347.24L184.19 357.86L185.08 370.59L186.88 381.21L187.77 367.06L185.08 350.78L180.6 340.87L193.15 343L207.49 347.95" id="d1aH9nZ4j"></path><path d="M184.14 376.25L185.56 388.28L195.46 395.36L207.49 398.9L217.4 401.73" id="b6hAYMqUYG"></path><path d="M183.43 368.47L194.05 369.89L204.66 369.89" id="c3ayZg76uH"></path><path d="M221.64 344.41L226.6 357.15L230.14 370.59L234.38 384.75L240.75 401.02L244.99 412.34L238.63 396.77L228.72 379.79L224.47 370.59L220.23 359.98L227.3 352.9L237.92 355.73L247.12 361.39L252.78 369.89L247.12 378.38L236.5 378.38L245.7 386.87L254.9 391.82L261.27 399.6L268.35 407.39" id="c1ye8wBLo3"></path><path d="M257.73 355.03L264.1 363.52L269.05 372.72L275.42 381.21L281.08 391.82L288.87 402.43L294.53 393.24L295.94 381.21L295.94 370.59L295.94 359.98L296.65 349.37" id="bl7JCdtVI"></path><path d="M305.85 348.66L308.68 360.69L310.09 371.3L312.22 382.62L314.34 393.24L316.46 403.14" id="a1oyYNDGjI"></path><path d="M357.5 359.27L349.72 350.78L343.35 360.69L343.35 373.42L343.35 384.75L346.18 394.65L356.09 404.56L367.41 408.1L375.19 401.73" id="a2nFRWSpE6"></path><path d="M382.98 344.41L384.39 358.56L385.1 370.59L386.51 384.04L388.64 393.94L390.05 404.56" id="a2o8q7c5i6"></path><path d="M378.02 345.83L395.71 347.95L408.45 349.37L419.06 351.49L433.92 355.03L423.31 347.24L410.57 343L397.84 340.17L384.39 340.17L373.78 340.17L373.07 350.78L376.61 364.22L385.1 372.01L395.71 372.01L407.03 372.01L417.65 372.01L405.62 372.01L395.01 372.01L386.51 378.38L384.39 389.7L385.81 403.14L391.47 411.63L411.28 413.76L427.55 414.46L438.88 413.76L450.2 412.34" id="b1p2DJKTZ6"></path><path d="M477.09 350.07L478.5 340.17L467.18 341.58L465.76 352.2L472.84 365.64L490.53 372.72L501.14 375.55L506.81 384.04L505.39 398.9L501.14 409.51L491.24 404.56L482.04 400.31L470.72 398.19L467.18 387.58" id="i35hxK4RSV"></path></defs><g><g><g><use xlink:href="#a6UE3mlve" opacity="1" fill="#84f3cb" fill-opacity="1"></use></g><g><use xlink:href="#b4lnEfUkv0" opacity="1" fill="#24131d" fill-opacity="1"></use></g><g><use xlink:href="#a3gFzWOhX" opacity="1" fill="#ce154c" fill-opacity="1"></use></g><g><use xlink:href="#d1dvDODqRd" opacity="1" fill="#df3a46" fill-opacity="1"></use></g><g><g><use xlink:href="#jpFSVaZub" opacity="1" fill-opacity="0" stroke="#000000" stroke-width="1" stroke-opacity="1"></use></g></g><g><g><use xlink:href="#fnlJ7jBN5" opacity="1" fill-opacity="0" stroke="#000000" stroke-width="1" stroke-opacity="1"></use></g></g><g><g><use xlink:href="#aiVGQysxO" opacity="1" fill-opacity="0" stroke="#000000" stroke-width="1" stroke-opacity="1"></use></g></g><g><g><use xlink:href="#d3c38xK50E" opacity="1" fill-opacity="0" stroke="#000000" stroke-width="1" stroke-opacity="1"></use></g></g><g><g><use xlink:href="#b1JammI7zq" opacity="1" fill-opacity="0" stroke="#000000" stroke-width="1" stroke-opacity="1"></use></g></g><g><g><use xlink:href="#a1UqIq2kFk" opacity="1" fill-opacity="0" stroke="#000000" stroke-width="1" stroke-opacity="1"></use></g></g><g><g><use xlink:href="#cu8qxYar8" opacity="1" fill-opacity="0" stroke="#000000" stroke-width="1" stroke-opacity="1"></use></g></g><g><g><use xlink:href="#d1aH9nZ4j" opacity="1" fill-opacity="0" stroke="#000000" stroke-width="1" stroke-opacity="1"></use></g></g><g><g><use xlink:href="#b6hAYMqUYG" opacity="1" fill-opacity="0" stroke="#000000" stroke-width="1" stroke-opacity="1"></use></g></g><g><g><use xlink:href="#c3ayZg76uH" opacity="1" fill-opacity="0" stroke="#000000" stroke-width="1" stroke-opacity="1"></use></g></g><g><g><use xlink:href="#c1ye8wBLo3" opacity="1" fill-opacity="0" stroke="#000000" stroke-width="1" stroke-opacity="1"></use></g></g><g><g><use xlink:href="#bl7JCdtVI" opacity="1" fill-opacity="0" stroke="#000000" stroke-width="1" stroke-opacity="1"></use></g></g><g><g><use xlink:href="#a1oyYNDGjI" opacity="1" fill-opacity="0" stroke="#000000" stroke-width="1" stroke-opacity="1"></use></g></g><g><g><use xlink:href="#a2nFRWSpE6" opacity="1" fill-opacity="0" stroke="#000000" stroke-width="1" stroke-opacity="1"></use></g></g><g><g><use xlink:href="#a2o8q7c5i6" opacity="1" fill-opacity="0" stroke="#000000" stroke-width="1" stroke-opacity="1"></use></g></g><g><g><use xlink:href="#b1p2DJKTZ6" opacity="1" fill-opacity="0" stroke="#000000" stroke-width="1" stroke-opacity="1"></use></g></g><g><g><use xlink:href="#i35hxK4RSV" opacity="1" fill-opacity="0" stroke="#000000" stroke-width="1" stroke-opacity="1"></use></g></g></g></g></svg>